<?xml version="1.0" encoding="UTF-8"?>
<svg version="1.1" xmlns="http://www.w3.org/2000/svg" width="512" height="512">
<path d="M0 0 C1.43666016 -0.02900391 1.43666016 -0.02900391 2.90234375 -0.05859375 C11.26901636 1.2548394 16.58764605 6.35644789 22.3125 12.25 C23.00601562 12.93642578 23.69953125 13.62285156 24.4140625 14.33007812 C29.34025607 19.31761318 33.50749087 23.78096925 34.59375 30.9375 C34.5834375 32.0925 34.573125 33.2475 34.5625 34.4375 C34.5728125 35.5925 34.583125 36.7475 34.59375 37.9375 C33.27512207 46.62493107 27.23057454 51.49464791 21.01046562 57.16077995 C18.81314818 59.16286718 16.63445747 61.18480924 14.45422494 63.20546401 C13.27952146 64.29393287 12.10390475 65.38141689 10.92743456 66.46797597 C3.31482782 73.50545771 -4.16831383 80.67936065 -11.65798509 87.84715974 C-18.92372046 94.79929922 -26.22241106 101.70368163 -33.6574707 108.47485352 C-68.36031735 137.6292908 -68.36031735 137.6292908 -84.79763889 177.70837498 C-85.0865023 186.36338578 -84.25973007 194.88181098 -82.91917038 203.42563629 C-81.17792006 214.8067281 -83.12277807 225.85114615 -88.75 236 C-89.10400879 236.66636475 -89.45801758 237.33272949 -89.82275391 238.01928711 C-96.06570549 249.47316911 -105.52092362 257.15274451 -117.9375 261.4375 C-121.75949717 262.35438394 -125.31586202 262.56643509 -129.24198914 262.57553101 C-130.51336227 262.58098434 -131.78473541 262.58643768 -133.09463501 262.59205627 C-134.4962768 262.59317593 -135.89791865 262.59422647 -137.29956055 262.59521484 C-138.7815923 262.59988623 -140.26362263 262.60503033 -141.74565125 262.61061096 C-144.93385877 262.62187225 -148.12205705 262.630316 -151.31027794 262.63673019 C-156.35840175 262.6474366 -161.40645916 262.66768933 -166.45454407 262.68984985 C-180.80845082 262.75168263 -195.16235357 262.80573818 -209.51635742 262.83886719 C-217.44662195 262.85725025 -225.37677501 262.88623232 -233.30695754 262.9268719 C-237.49908175 262.94788013 -241.69106587 262.96339036 -245.88324547 262.96567917 C-249.83058074 262.96783689 -253.7776244 262.9838199 -257.72487068 263.01006889 C-259.16712203 263.01722073 -260.60940886 263.01938301 -262.05167389 263.01596642 C-274.94513614 262.99031954 -284.36945116 264.45799546 -293.9375 273.4375 C-297.05994838 276.67052412 -300.01469206 280.02396232 -302.9375 283.4375 C-304.10291604 284.77192659 -305.2695002 286.10533433 -306.4375 287.4375 C-306.994375 288.076875 -307.55125 288.71625 -308.125 289.375 C-310.96897795 292.61125077 -313.86362701 295.80158668 -316.75 299 C-318.66304149 301.13167481 -320.55637612 303.2776911 -322.4375 305.4375 C-325.83124015 309.33401647 -329.29180003 313.16814945 -332.75390625 317.00390625 C-334.64598685 319.11261146 -336.51655758 321.23669801 -338.375 323.375 C-342.01958707 327.56077866 -345.76379647 331.65320435 -349.5078125 335.75 C-352.18600831 338.71237736 -354.7929344 341.72836692 -357.3671875 344.78125 C-361.48188842 349.12113355 -365.18617881 350.5947153 -371.125 350.8125 C-376.88929975 350.74387738 -380.73400732 349.42288692 -384.9375 345.4375 C-386.62243354 343.15500282 -387.714899 341.02941412 -388.9375 338.4375 C-389.2675 337.7775 -389.5975 337.1175 -389.9375 336.4375 C-390.53644487 327.56683322 -389.47807984 319.20888408 -387.75 310.53125 C-387.52803955 309.36291626 -387.3060791 308.19458252 -387.07739258 306.99084473 C-386.37527025 303.30414723 -385.6573425 299.62077465 -384.9375 295.9375 C-384.22026842 292.22522487 -383.50647286 288.51234373 -382.79760742 284.79846191 C-382.35790383 282.49915528 -381.91297131 280.20084081 -381.4621582 277.90368652 C-381.26195068 276.86490356 -381.06174316 275.82612061 -380.85546875 274.75585938 C-380.67781982 273.8468689 -380.5001709 272.93787842 -380.31713867 272.00134277 C-379.93578558 269.42592188 -379.79779282 267.03659426 -379.9375 264.4375 C-381.63478564 262.74021436 -383.80143895 263.29518124 -386.12475586 263.27978516 C-387.23358627 263.26952301 -388.34241669 263.25926086 -389.48484802 263.24868774 C-390.69512161 263.24138641 -391.9053952 263.23408508 -393.15234375 263.2265625 C-395.70117806 263.19847269 -398.2500061 263.16980811 -400.79882812 263.140625 C-404.82751978 263.09834589 -408.85617531 263.06159751 -412.88500977 263.03613281 C-416.76603723 263.00838214 -420.64652626 262.96248371 -424.52734375 262.9140625 C-425.71939926 262.91080963 -426.91145477 262.90755676 -428.13963318 262.90420532 C-440.71775524 262.72097012 -451.08163922 259.49616766 -460.625 251.0625 C-461.388125 250.19625 -462.15125 249.33 -462.9375 248.4375 C-463.47890625 247.89867187 -464.0203125 247.35984375 -464.578125 246.8046875 C-473.58699052 237.44330116 -478.16423356 224.81816813 -478.21165466 211.932724 C-478.21689134 211.22185042 -478.22212802 210.51097685 -478.22752339 209.77856165 C-478.24240666 207.41994285 -478.24322594 205.06154321 -478.24389648 202.70288086 C-478.25152604 201.00191894 -478.2599549 199.30096045 -478.26911926 197.6000061 C-478.29099735 192.99424091 -478.29985458 188.38854209 -478.30494571 183.78273082 C-478.30859835 180.89871554 -478.31484321 178.0147174 -478.3219471 175.13070869 C-478.34642199 165.05042896 -478.35948847 154.9702005 -478.36303711 144.88989258 C-478.36666698 135.52521925 -478.39652808 126.16087474 -478.43844169 116.79630178 C-478.47325619 108.73226722 -478.4885875 100.66834101 -478.48928314 92.60423189 C-478.4900724 87.79875523 -478.49864779 82.9936136 -478.52728081 78.18821526 C-478.55365228 73.66129517 -478.55556152 69.13498329 -478.53962517 64.60802078 C-478.53782551 62.95820464 -478.54436521 61.30835197 -478.56044388 59.6586132 C-478.71991204 42.215321 -474.33017085 27.41958811 -462.3125 14.1875 C-450.6454473 3.19876432 -437.4373035 1.12699899 -422.08486938 1.17680359 C-420.82297425 1.17297804 -419.56107911 1.16915249 -418.26094472 1.16521102 C-414.78358752 1.15498385 -411.30633403 1.15709925 -407.82896852 1.16139162 C-404.06881395 1.16386849 -400.30868373 1.1548328 -396.54853821 1.14735413 C-389.19180975 1.13463185 -381.83511783 1.13281033 -374.47838022 1.13515439 C-368.49616593 1.13694043 -362.51396269 1.13518178 -356.53174973 1.13092995 C-355.67898268 1.13033476 -354.82621563 1.12973957 -353.94760715 1.12912634 C-352.21497827 1.12791454 -350.48234938 1.12670041 -348.7497205 1.12548397 C-332.5163452 1.114618 -316.2829907 1.11676648 -300.04961424 1.12286881 C-285.21441907 1.12803745 -270.37928957 1.11678226 -255.54410739 1.09777059 C-240.29307929 1.07837658 -225.04208224 1.07013892 -209.79104173 1.07389385 C-201.23605524 1.07580348 -192.68112463 1.07334154 -184.12614822 1.05917931 C-176.8433755 1.04724462 -169.56069308 1.045884 -162.27791907 1.05796947 C-158.56601582 1.06384346 -154.85427758 1.06499885 -151.14238548 1.05296707 C-147.10949326 1.04004726 -143.07699091 1.05060771 -139.0440979 1.0632782 C-137.30330631 1.05221677 -137.30330631 1.05221677 -135.52734721 1.04093188 C-121.35099412 1.13430816 -108.70247196 4.74140943 -98.1875 14.5625 C-85.48412626 28.15215562 -82.21547736 44.4981308 -81.375 62.4375 C-81.33181641 63.30761719 -81.28863281 64.17773438 -81.24414062 65.07421875 C-81.13925782 67.19518219 -81.03799925 69.31632433 -80.9375 71.4375 C-80.1011351 70.59225266 -79.2647702 69.74700531 -78.40306091 68.87614441 C-70.51320786 60.90514432 -62.61276819 52.94477306 -54.70188808 44.9946394 C-50.63532956 40.90722172 -46.57256948 36.81617343 -42.51831055 32.71655273 C-38.60433705 28.75906351 -34.68062439 24.81147471 -30.75001717 20.87050819 C-29.25343152 19.3665416 -27.76036631 17.85906321 -26.27093315 16.34801292 C-24.18133807 14.22930945 -22.07948243 12.12352978 -19.97436523 10.02026367 C-19.36368195 9.39519928 -18.75299866 8.77013489 -18.12380981 8.12612915 C-12.80465005 2.85724265 -7.71170152 0.01035128 0 0 Z M-4.515625 19.625 C-5.39734375 20.553125 -6.2790625 21.48125 -7.1875 22.4375 C-8.07953125 23.365625 -8.9715625 24.29375 -9.890625 25.25 C-10.56609375 25.971875 -11.2415625 26.69375 -11.9375 27.4375 C-10.5110422 30.6961636 -8.77045838 32.8399854 -6.2421875 35.328125 C-5.52675781 36.03710938 -4.81132812 36.74609375 -4.07421875 37.4765625 C-3.32785156 38.20617187 -2.58148438 38.93578125 -1.8125 39.6875 C-1.05839844 40.43257812 -0.30429687 41.17765625 0.47265625 41.9453125 C2.33150772 43.7806342 4.19487005 45.6111191 6.0625 47.4375 C6.53953369 47.02830322 7.01656738 46.61910645 7.50805664 46.19750977 C8.13574951 45.65924561 8.76344238 45.12098145 9.41015625 44.56640625 C10.03156494 44.03345947 10.65297363 43.5005127 11.29321289 42.95141602 C12.69166518 41.75481016 14.09496802 40.56387321 15.5 39.375 C17.26323778 37.53740129 17.26323778 37.53740129 17.35644531 35.05200195 C16.99673586 31.85255963 16.1759317 30.9193148 13.921875 28.66796875 C13.26316406 28.00732422 12.60445313 27.34667969 11.92578125 26.66601562 C11.22839844 25.99248047 10.53101563 25.31894531 9.8125 24.625 C9.13058594 23.93212891 8.44867188 23.23925781 7.74609375 22.52539062 C2.26879156 16.7771716 2.26879156 16.7771716 -4.515625 19.625 Z M-451.9375 28.4375 C-461.55425748 41.78274028 -462.08930324 55.15077146 -462.08276367 71.11425781 C-462.08576086 72.58215927 -462.08916466 74.05005994 -462.09294128 75.51795959 C-462.10172899 79.48305335 -462.1041172 83.44812548 -462.10475707 87.41322803 C-462.10547059 89.89704675 -462.10761063 92.38086006 -462.11025429 94.86467743 C-462.11949071 103.5486231 -462.12359135 112.23255348 -462.12280273 120.91650391 C-462.12220254 128.9808856 -462.13274734 137.04520027 -462.1485464 145.10956502 C-462.16166973 152.0585153 -462.16698462 159.0074438 -462.16634732 165.95640635 C-462.16609373 170.09546569 -462.16886792 174.2344654 -462.17952538 178.37351227 C-462.18928735 182.27075281 -462.18923075 186.16787772 -462.18200874 190.0651226 C-462.18097286 191.48517211 -462.18326561 192.90522912 -462.1893692 194.32526588 C-462.25356862 210.31321042 -461.17308643 225.19689551 -449.9375 237.4375 C-443.89624494 242.88671206 -438.24818558 245.68255679 -429.96728516 245.69287109 C-428.81233551 245.69983002 -427.65738586 245.70678894 -426.46743774 245.71395874 C-425.23294891 245.71296173 -423.99846008 245.71196472 -422.7265625 245.7109375 C-420.76733734 245.72603462 -418.80811205 245.74115505 -416.84889793 245.75762367 C-412.03896684 245.79526443 -407.22901196 245.81253966 -402.41894531 245.81835938 C-399.71412218 245.82241924 -397.00972734 245.8370582 -394.30502319 245.86270142 C-391.76526521 245.88602753 -389.22529907 245.89356293 -386.68545532 245.88314819 C-378.48414754 245.97681931 -372.58959217 246.78540783 -366.5625 252.8125 C-360.52231558 262.56972098 -363.01889077 273.31586662 -365.125 283.98046875 C-365.34696045 285.14830399 -365.5689209 286.31613922 -365.79760742 287.5193634 C-366.50227825 291.22295661 -367.21878658 294.92410827 -367.9375 298.625 C-368.65523842 302.33676739 -369.37019615 306.04898054 -370.07739258 309.76277161 C-370.51616174 312.06566272 -370.96102865 314.36740286 -371.4128418 316.66777039 C-372.43463651 322.01803246 -373.20927618 326.98887297 -372.9375 332.4375 C-371.9475 332.7675 -370.9575 333.0975 -369.9375 333.4375 C-369.35355469 332.76267578 -369.35355469 332.76267578 -368.7578125 332.07421875 C-365.19958398 327.98307582 -361.5914724 323.94346056 -357.9375 319.9375 C-354.48421847 316.15087002 -351.07650949 312.3327368 -347.71484375 308.46484375 C-345.64390513 306.10260827 -343.54237152 303.76954147 -341.4375 301.4375 C-338.74766569 298.45687279 -336.07439636 295.46504767 -333.4375 292.4375 C-330.04496907 288.54237189 -326.58555799 284.70967237 -323.125 280.875 C-321.21195851 278.74332519 -319.31862388 276.5973089 -317.4375 274.4375 C-316.27102407 273.1039998 -315.10434508 271.7706772 -313.9375 270.4375 C-312.87208984 269.21353516 -312.87208984 269.21353516 -311.78515625 267.96484375 C-301.77003674 256.61437497 -292.39119641 248.7830536 -276.9375 246.4375 C-271.98906231 246.14921662 -267.0446825 246.15651761 -262.08959961 246.16625977 C-260.60373145 246.1618656 -259.11786575 246.15656095 -257.63200378 246.15042114 C-254.44821101 246.13897586 -251.26448431 246.13346579 -248.08067131 246.13253975 C-243.0411519 246.13058918 -238.00176813 246.11248345 -232.96229553 246.09178162 C-220.44944997 246.0427343 -207.9365679 246.0117102 -195.42364502 245.99047852 C-185.68809272 245.97393773 -175.95265783 245.9510892 -166.21718413 245.90745777 C-161.21248173 245.88573761 -156.20800275 245.87761817 -151.20325649 245.87985051 C-148.08568541 245.87817879 -144.96825926 245.86410057 -141.85074043 245.84663773 C-140.4108651 245.84105928 -138.97095946 245.8405335 -137.53108215 245.84557533 C-125.58612175 245.88300187 -118.13817582 244.50452613 -109.2734375 236.08984375 C-98.45530897 223.80638343 -98.6356078 208.68801668 -98.8125 193.25 C-98.82255603 191.71029232 -98.83167721 190.17057824 -98.83984375 188.63085938 C-98.86163532 184.89960413 -98.89601858 181.16859446 -98.9375 177.4375 C-102.76597654 180.60058632 -106.36351656 183.80184558 -109.76953125 187.41796875 C-110.42373047 188.10697266 -111.07792969 188.79597656 -111.75195312 189.50585938 C-113.08436708 190.91902569 -114.40476771 192.3436157 -115.71289062 193.77929688 C-120.75925287 199.03324699 -124.90388109 200.89190866 -131.9375 202.4375 C-133.88909499 202.93542385 -135.84062197 203.43363009 -137.79096985 203.93641663 C-140.67596751 204.67299991 -143.56823824 205.37816851 -146.46142578 206.08178711 C-148.69869148 206.62773098 -150.93327196 207.18388137 -153.16796875 207.74023438 C-154.60661758 208.0917736 -156.04541469 208.44270668 -157.484375 208.79296875 C-158.14387146 208.95854782 -158.80336792 209.12412689 -159.48284912 209.29472351 C-164.18840023 210.42236083 -168.72843021 211.45247801 -173.25 209.375 C-175.755053 206.49882804 -175.67136099 204.22835241 -175.9375 200.4375 C-175.55575523 197.18329788 -174.84432904 194.03475367 -174.09375 190.84765625 C-173.88697632 189.94430038 -173.68020264 189.04094452 -173.46716309 188.11021423 C-173.02637719 186.20678228 -172.57885534 184.30489907 -172.125 182.40454102 C-171.44176384 179.51801381 -170.79820762 176.62446325 -170.15625 173.72851562 C-169.72115325 171.87183101 -169.28372784 170.01569025 -168.84375 168.16015625 C-168.65800415 167.30470718 -168.4722583 166.44925812 -168.28088379 165.56788635 C-165.59526427 154.74536486 -156.96675536 148.50001085 -148.99647522 141.33222961 C-144.2278368 137.03632771 -139.55891817 132.635832 -134.89349461 128.22841358 C-131.3690976 124.90713378 -127.81954591 121.62785311 -124.18774414 118.42407227 C-105.48450128 102.58619981 -105.48450128 102.58619981 -97.02294922 80.54833984 C-96.5000208 71.42130792 -97.42146657 62.42849038 -98.9375 53.4375 C-99.10992218 52.40646149 -99.28234436 51.37542297 -99.45999146 50.31314087 C-101.48609907 39.35595391 -106.06223125 29.60361138 -115.375 23.0625 C-122.9686617 18.05599745 -130.54912993 18.14668261 -139.36016846 18.17007446 C-140.61203878 18.16554335 -141.86390911 18.16101224 -143.1537149 18.15634382 C-146.61697257 18.14414231 -150.08013343 18.1443709 -153.54340768 18.14673257 C-157.28314967 18.14714146 -161.02286092 18.13609467 -164.7625885 18.12661743 C-172.08529855 18.11002193 -179.4079764 18.10450854 -186.73070368 18.10339268 C-192.68487146 18.10244148 -198.63902863 18.09832761 -204.59319305 18.09199142 C-221.48474032 18.0743827 -238.37626221 18.06515194 -255.26781872 18.06665237 C-256.63305851 18.06677224 -256.63305851 18.06677224 -258.02587891 18.06689453 C-258.93715372 18.06697629 -259.84842853 18.06705805 -260.78731772 18.06714229 C-275.55226503 18.06795501 -290.31711027 18.04881997 -305.08202806 18.0206178 C-320.25272654 17.99186986 -335.42337527 17.97807857 -350.59410167 17.97980535 C-359.10720426 17.98046861 -367.62019987 17.97500451 -376.13327789 17.95344925 C-383.38213379 17.93521227 -390.6308342 17.9309107 -397.87970313 17.9444681 C-401.57530966 17.95098521 -405.27061813 17.9511609 -408.96619606 17.9337616 C-412.97998707 17.91505916 -416.993092 17.92761805 -421.00689697 17.94302368 C-422.16460201 17.93273656 -423.32230704 17.92244943 -424.51509404 17.91185057 C-434.87261458 17.99949121 -444.95692075 20.2672481 -451.9375 28.4375 Z M-26.68640518 42.06615067 C-27.4532954 42.8352615 -28.22018562 43.60437233 -29.01031494 44.39678955 C-29.88794998 45.27449509 -30.76558502 46.15220062 -31.66981506 47.0565033 C-32.6500358 48.04185896 -33.63021316 49.02725776 -34.61035156 50.01269531 C-35.63663458 51.04089598 -36.66314439 52.06887032 -37.68986511 53.09663391 C-39.90666561 55.31660461 -42.12190047 57.53812209 -44.33597565 59.76081085 C-47.83802481 63.27634348 -51.34384985 66.78809388 -54.85028076 70.29925537 C-62.93166379 78.39270655 -71.00806928 86.49111897 -79.08440399 94.58960724 C-86.47396953 101.99935398 -93.86458344 109.40804671 -101.25926757 116.81268573 C-104.7432767 120.30167404 -108.22483275 123.79308632 -111.70452833 127.28637648 C-113.87414387 129.46346585 -116.04584212 131.63846852 -118.21810341 133.81291771 C-119.22312914 134.81981152 -120.22729201 135.82756748 -121.23051262 136.83625984 C-122.6035922 138.2165899 -123.98009548 139.5935117 -125.35675049 140.97027588 C-126.12514881 141.74089481 -126.89354713 142.51151375 -127.68523026 143.30548477 C-129.9375 145.4375 -129.9375 145.4375 -132.72379684 147.59170151 C-133.45431889 148.20081501 -134.18484093 148.80992851 -134.9375 149.4375 C-134.9375 150.0975 -134.9375 150.7575 -134.9375 151.4375 C-136.4225 151.9325 -136.4225 151.9325 -137.9375 152.4375 C-139.52447631 154.03663982 -139.52447631 154.03663982 -141 155.9375 C-143.73852916 159.33801458 -143.73852916 159.33801458 -145.9375 160.4375 C-144.5110422 163.6961636 -142.77045838 165.8399854 -140.2421875 168.328125 C-139.52675781 169.03710938 -138.81132812 169.74609375 -138.07421875 170.4765625 C-137.32785156 171.20617187 -136.58148438 171.93578125 -135.8125 172.6875 C-135.05839844 173.43257812 -134.30429687 174.17765625 -133.52734375 174.9453125 C-131.66849228 176.7806342 -129.80512995 178.6111191 -127.9375 180.4375 C-124.19610861 178.87673246 -121.82449467 176.57106275 -118.97674561 173.71725464 C-118.49146873 173.23368661 -118.00619185 172.75011858 -117.50620961 172.25189698 C-115.88313928 170.632118 -114.26731556 169.00529982 -112.65136719 167.37841797 C-111.48866001 166.2151466 -110.32551216 165.05231554 -109.16195679 163.88989258 C-106.00490763 160.73341763 -102.85406623 157.57081079 -99.70429134 154.40707922 C-96.41135511 151.10164706 -93.11276058 147.80187149 -89.8147583 144.50149536 C-83.57058223 138.25110119 -77.33152226 131.99562589 -71.09427762 125.7383157 C-63.99306549 118.61475488 -56.88617876 111.496867 -49.77880621 104.37945342 C-35.15870792 89.73844564 -20.54576185 75.09031713 -5.9375 60.4375 C-7.46479419 57.22964842 -9.06781565 55.06080858 -11.59765625 52.546875 C-12.30857422 51.83789062 -13.01949219 51.12890625 -13.75195312 50.3984375 C-14.86473633 49.30402344 -14.86473633 49.30402344 -16 48.1875 C-17.11858398 47.06988281 -17.11858398 47.06988281 -18.25976562 45.9296875 C-22.10084525 40.90810565 -22.10084525 40.90810565 -26.68640518 42.06615067 Z M-153.9375 178.4375 C-155.4225 184.8725 -155.4225 184.8725 -156.9375 191.4375 C-152.6475 190.4475 -148.3575 189.4575 -143.9375 188.4375 C-144.845 187.344375 -145.7525 186.25125 -146.6875 185.125 C-147.19796875 184.51011719 -147.7084375 183.89523437 -148.234375 183.26171875 C-150.17343441 181.07794184 -150.17343441 181.07794184 -153.9375 178.4375 Z " fill="#7471EF" transform="translate(477.9375,80.5625)"/>
<path d="M0 0 C0.90235494 -0.00538554 1.80470988 -0.01077108 2.73440892 -0.01631981 C5.76456985 -0.03065195 8.79429717 -0.02348268 11.82447815 -0.01637268 C13.99427137 -0.02207349 16.16406158 -0.02903662 18.33384705 -0.03717041 C24.23256118 -0.05514877 30.13112693 -0.05392463 36.02986026 -0.04822803 C40.95055057 -0.04514295 45.87121209 -0.05122103 50.79189831 -0.05726677 C62.39832286 -0.07132575 74.00467382 -0.06973927 85.61109924 -0.05836487 C97.59337324 -0.04688177 109.57533192 -0.06095943 121.55758327 -0.08776134 C131.83792781 -0.10989728 142.118202 -0.11656048 152.39856869 -0.11068493 C158.54174185 -0.10730918 164.68477155 -0.10977151 170.82792473 -0.12693596 C176.60390801 -0.14236939 182.37955904 -0.13848942 188.15552902 -0.11963081 C190.27716952 -0.11593497 192.39883444 -0.11908221 194.5204525 -0.1295166 C197.4134354 -0.14265995 200.30530763 -0.13123795 203.19824219 -0.11352539 C204.04084907 -0.1231304 204.88345596 -0.1327354 205.75159639 -0.14263147 C209.69225825 -0.09287737 211.71715086 0.11868613 215.16429234 2.20025539 C217.90355419 5.19873772 218.09102869 7.37896362 218.16261292 11.38768005 C217.06053283 14.78576031 216.24163416 15.33499923 213.16261292 17.38768005 C210.21313679 17.58620496 207.3577355 17.66583479 204.40751648 17.65510559 C203.50193241 17.6596367 202.59634834 17.66416782 201.66332233 17.66883624 C198.61632235 17.68153828 195.56949979 17.67985613 192.5224762 17.6782074 C190.34297962 17.68418902 188.16348517 17.69099371 185.98399353 17.69856262 C180.05426122 17.71626697 174.1245866 17.72091987 168.19483042 17.72219419 C163.24934173 17.72409058 158.30386656 17.7314451 153.35838306 17.73853838 C141.02543679 17.75576948 128.69252362 17.75956348 116.35956715 17.75803776 C106.31420718 17.75727538 96.26897149 17.77286992 86.22364807 17.79930115 C74.56120234 17.82988227 62.89884844 17.84681916 51.23636043 17.8453747 C45.06186375 17.84486405 38.88752614 17.85060442 32.71306229 17.8717308 C26.90673841 17.89105434 21.10072632 17.89127791 15.29439163 17.87669754 C13.16145881 17.87460103 11.02850677 17.87936013 8.89560699 17.89141846 C5.98726051 17.90679774 3.07999886 17.89761112 0.17167664 17.88215637 C-0.67550332 17.8924435 -1.52268327 17.90273062 -2.39553535 17.91332948 C-6.39308788 17.8662768 -8.37227997 17.67849051 -11.84185982 15.50911903 C-14.18296178 13.02030065 -14.75440074 11.79012031 -14.83738708 8.38768005 C-14.10116212 5.57663928 -13.29916091 3.87798481 -11.30769253 1.76347256 C-7.65636981 -0.27006643 -4.07196951 -0.02896737 0 0 Z " fill="#8C5CF6" transform="translate(77.83738708496094,233.61231994628906)"/>
<path d="M0 0 C0.85743587 -0.00467997 1.71487173 -0.00935994 2.5982905 -0.01418173 C5.47645522 -0.02616445 8.35414667 -0.01666166 11.23231506 -0.00723267 C13.29373452 -0.01129694 15.3551518 -0.016638 17.41656494 -0.02316284 C23.01984503 -0.03686022 28.62295973 -0.03152753 34.22624278 -0.02202559 C40.08557637 -0.01444053 45.94489561 -0.02147148 51.80422974 -0.02618408 C61.64584398 -0.03164543 71.48739074 -0.02444051 81.32899475 -0.01016235 C92.71136383 0.00616032 104.09357167 0.0008799 115.47593683 -0.01564157 C125.24248318 -0.02925102 135.00898096 -0.0311786 144.77553374 -0.02332556 C150.61127685 -0.0186455 156.44694416 -0.01803329 162.28268242 -0.02793503 C167.76971427 -0.03659434 173.25653809 -0.03060158 178.74354744 -0.01325226 C180.7587563 -0.0092817 182.77398264 -0.01043115 184.78918457 -0.01704025 C187.53750938 -0.02522338 190.28516522 -0.01497316 193.03344727 0 C194.23315695 -0.01003825 194.23315695 -0.01003825 195.45710319 -0.02027929 C199.99769413 0.02778846 202.9799819 0.53887465 206.58021545 3.38095093 C208.14957139 6.5196628 207.93222648 8.91950915 207.58021545 12.38095093 C204.81479967 16.13113226 203.31289772 17.2637179 198.66526699 18.00736332 C197.09623525 18.0334912 195.5266003 18.03213591 193.95751953 18.00914001 C193.09035657 18.0162344 192.22319361 18.02332879 191.32975298 18.03063816 C188.4244268 18.04823851 185.52043482 18.03010311 182.61512756 18.01205444 C180.53223053 18.01719244 178.44933784 18.02447281 176.36645508 18.03373718 C170.70947488 18.05227333 165.05296514 18.03929884 159.39600444 18.01964688 C153.48015325 18.00327968 147.5643323 18.01207049 141.64846802 18.01716614 C131.71442637 18.02168889 121.78057292 18.00580501 111.84657288 17.97787476 C100.35448185 17.94581335 88.86273009 17.94584148 77.37061495 17.96308953 C66.32290569 17.9789411 55.27532105 17.97223041 44.22761726 17.95515251 C39.52232619 17.94827223 34.81713472 17.94932448 30.11184502 17.95669746 C24.57384069 17.96434629 19.03622354 17.95227982 13.49828529 17.92484856 C11.46331303 17.91794927 9.42830472 17.91788319 7.39333344 17.92506409 C4.62042963 17.93372304 1.84873055 17.91786337 -0.92407227 17.89561462 C-2.13880088 17.90797577 -2.13880088 17.90797577 -3.37806946 17.92058665 C-6.95631068 17.86740748 -9.00429907 17.69635729 -11.89607906 15.5011282 C-13.69624082 12.99627271 -14.26944506 11.46291029 -14.41978455 8.38095093 C-13.67959413 5.55476934 -12.88433278 3.86605227 -10.86398983 1.75632286 C-7.33372377 -0.2301833 -3.94412946 -0.03290965 0 0 Z " fill="#8D5BF7" transform="translate(77.41978454589844,277.6190490722656)"/>
<path d="M0 0 C0.98097656 -0.00257813 1.96195313 -0.00515625 2.97265625 -0.0078125 C4.49439453 0.00378906 4.49439453 0.00378906 6.046875 0.015625 C7.04589844 0.00789062 8.04492188 0.00015625 9.07421875 -0.0078125 C17.85878515 0.01515369 25.7801947 0.52470476 32.796875 6.265625 C39.06099005 12.82109424 41.22584072 18.63026961 41.0546875 27.5546875 C40.81294676 30.09662803 40.2880039 32.1672383 39.484375 34.578125 C39.2575 35.795 39.030625 37.011875 38.796875 38.265625 C40.97032627 41.52377191 40.97032627 41.52377191 43.796875 44.265625 C47.05982598 50.65834528 46.94697227 58.89250065 45.14453125 65.74609375 C42.2727413 72.11826286 37.4960647 76.10983999 31.16381836 78.82128906 C27.0346655 80.33683766 23.13181343 80.71793338 18.75390625 80.69921875 C17.65667488 80.70708153 17.65667488 80.70708153 16.53727722 80.71510315 C15.00541444 80.72147521 13.4735024 80.72024946 11.94165039 80.71166992 C9.60409964 80.70310567 7.2689542 80.73207 4.93164062 80.76367188 C3.43489656 80.76528297 1.9381482 80.76470812 0.44140625 80.76171875 C-0.25139938 80.77295273 -0.94420502 80.78418671 -1.65800476 80.79576111 C-5.13572721 80.74591539 -7.12857064 80.31117178 -10.1184082 78.48461914 C-13.64605887 74.72975125 -13.33344762 71.04030387 -13.36425781 66.03173828 C-13.37386536 64.77007843 -13.3834729 63.50841858 -13.39337158 62.20852661 C-13.39821966 60.83433209 -13.40249847 59.46013545 -13.40625 58.0859375 C-13.41200627 56.6711324 -13.41776394 55.25632731 -13.42352295 53.84152222 C-13.43401461 50.87758014 -13.4398694 47.91366505 -13.44335938 44.94970703 C-13.4488431 41.16126594 -13.47287589 37.37318442 -13.50133133 33.58485603 C-13.52000047 30.66282118 -13.52516555 27.74087226 -13.52669525 24.81878281 C-13.52971221 23.42259631 -13.53770833 22.02641098 -13.55088043 20.63028336 C-13.56803007 18.67302882 -13.56420303 16.71562497 -13.55957031 14.75830078 C-13.56321594 13.64673615 -13.56686157 12.53517151 -13.57061768 11.3899231 C-13.14488311 7.77047218 -12.08667631 5.37030179 -10.203125 2.265625 C-6.81633046 0.31811313 -3.86265953 0.00990063 0 0 Z M3.796875 17.265625 C3.796875 22.215625 3.796875 27.165625 3.796875 32.265625 C7.1071875 32.3584375 7.1071875 32.3584375 10.484375 32.453125 C11.72574219 32.48792969 12.96710938 32.52273437 14.24609375 32.55859375 C18.03404411 32.24605659 19.8589196 31.63775195 22.796875 29.265625 C24.04525881 25.86033504 24.04525881 25.86033504 23.796875 22.265625 C21.62634001 19.31989895 20.27504677 18.42501559 16.796875 17.265625 C12.46016197 17.13060903 8.13675766 17.22265586 3.796875 17.265625 Z M3.796875 49.265625 C3.796875 53.885625 3.796875 58.505625 3.796875 63.265625 C7.21438505 63.37354637 10.62849097 63.45290236 14.046875 63.515625 C15.01496094 63.54914063 15.98304687 63.58265625 16.98046875 63.6171875 C22.55308407 63.78681219 22.55308407 63.78681219 27.4375 61.4375 C29.30140875 58.45953085 29.37182692 56.71533651 28.796875 53.265625 C27.50461349 50.88308876 27.50461349 50.88308876 24.796875 49.265625 C21.20284146 48.76747239 17.66630088 48.89031864 14.046875 49.015625 C13.06332031 49.03367188 12.07976562 49.05171875 11.06640625 49.0703125 C8.64281159 49.11737259 6.21971875 49.18911414 3.796875 49.265625 Z " fill="#9D4DFB" transform="translate(76.203125,132.734375)"/>
<path d="M0 0 C2.61714639 2.76424595 3.78985479 4.62114897 4.54296875 8.38671875 C3.74821847 12.04257004 2.67015597 13.72680947 -0.08203125 16.26171875 C-2.89453125 17.32421875 -2.89453125 17.32421875 -6.08203125 17.26171875 C-8.60826121 16.0215695 -10.76308066 14.80430295 -13.08203125 13.26171875 C-19.00242023 9.46423094 -24.08251936 7.45894628 -31.14453125 8.94921875 C-37.24060393 10.71790521 -41.51186976 14.03398228 -45.08203125 19.26171875 C-48.12003439 25.59999867 -48.13586126 32.89079967 -46.5 39.67578125 C-44.06706494 45.43039478 -39.46589463 48.39627396 -34.08203125 51.26171875 C-27.88696867 53.32673961 -22.67388323 52.86044402 -16.76953125 50.07421875 C-11.37509181 47.11354966 -8.75318677 43.7076522 -6.08203125 38.26171875 C-7.17902344 38.308125 -8.27601563 38.35453125 -9.40625 38.40234375 C-10.86064975 38.43987665 -12.31507908 38.47627518 -13.76953125 38.51171875 C-14.49076172 38.54523438 -15.21199219 38.57875 -15.95507812 38.61328125 C-19.78657277 38.68326289 -21.68404261 38.4980082 -25.0625 36.4921875 C-27.46636207 33.83724505 -27.67569277 31.90054413 -27.74609375 28.359375 C-26.69309095 25.03312498 -24.72639291 23.47710718 -22.08203125 21.26171875 C-18.93164062 20.63061523 -18.93164062 20.63061523 -15.42578125 20.6328125 C-13.52119141 20.62991211 -13.52119141 20.62991211 -11.578125 20.62695312 C-10.25941406 20.65080078 -8.94070313 20.67464844 -7.58203125 20.69921875 C-6.26332031 20.68826172 -4.94460938 20.67730469 -3.5859375 20.66601562 C7.28216246 20.74876766 7.28216246 20.74876766 11.91796875 25.26171875 C14.76836077 30.96250279 12.52307128 38.47166591 10.96484375 44.29296875 C7.32467384 54.61583863 -0.69444821 62.03471251 -10.08203125 67.26171875 C-20.53923463 71.92483107 -31.76946706 71.5061508 -42.36328125 67.51953125 C-52.53752014 62.81248395 -60.2012155 54.30296977 -64.19921875 43.87109375 C-66.8600799 32.99217471 -66.6301997 20.17269028 -61.08203125 10.26171875 C-55.57871345 1.2403649 -47.45661268 -5.36949622 -37.21484375 -8.2421875 C-24.10376832 -11.29183325 -10.51949145 -8.78268986 0 0 Z " fill="#7272EF" transform="translate(319.08203125,142.73828125)"/>
<path d="M0 0 C7.57321091 6.87172256 12.30935209 16.24827202 12.95703125 26.44921875 C13.12776309 39.15451352 10.58855119 49.54603618 1.97265625 59.2578125 C-6.81926416 67.58131093 -17.27416288 70.60599059 -29.125 70.4609375 C-39.47664572 69.7613269 -49.09606007 64.99918367 -56.12109375 57.375 C-64.39702218 47.15179429 -66.10127395 36.18629731 -65.24609375 23.25 C-63.57303685 12.88829464 -57.40152846 3.75164874 -49.24609375 -2.75 C-33.52465935 -13.05779264 -14.59420199 -11.37078694 0 0 Z M-41.12109375 12.875 C-46.32821583 17.88516238 -48.4391322 23.66326657 -48.74609375 30.8125 C-48.40955555 38.35305905 -45.85101626 43.02300318 -40.37109375 48.125 C-35.32908443 52.2088415 -30.89561455 53.71762643 -24.3203125 53.4921875 C-17.76093436 52.72630907 -13.1636025 50.04182461 -8.72265625 45.1953125 C-4.76055928 39.97540697 -3.60017087 34.32707794 -3.83984375 27.8359375 C-4.86088965 21.33658763 -7.89121636 15.96391376 -12.93359375 11.75 C-22.15803059 5.67537086 -32.35028857 6.18001438 -41.12109375 12.875 Z " fill="#8760F5" transform="translate(234.24609375,142.75)"/>
<path d="M0 0 C1.89661239 3.59142406 2.24554739 6.59344178 2.22705078 10.61645508 C2.22689972 11.71721878 2.22674866 12.81798248 2.22659302 13.95210266 C2.21627045 15.1293541 2.20594788 16.30660553 2.1953125 17.51953125 C2.1924826 18.73323898 2.18965271 19.94694672 2.18673706 21.19743347 C2.17555308 25.06922311 2.1504513 28.94078041 2.125 32.8125 C2.11496792 35.43944978 2.10584246 38.06640319 2.09765625 40.69335938 C2.07561954 47.12898536 2.04215941 53.56447608 2 60 C3.14214966 59.9685791 3.14214966 59.9685791 4.30737305 59.93652344 C7.76728032 59.85322205 11.22697638 59.80129416 14.6875 59.75 C15.88568359 59.71648437 17.08386719 59.68296875 18.31835938 59.6484375 C19.47529297 59.63554687 20.63222656 59.62265625 21.82421875 59.609375 C23.41882935 59.5779541 23.41882935 59.5779541 25.0456543 59.54589844 C28.75311544 60.11575859 30.37521072 61.36316097 33 64 C34.0625 67.4375 34.0625 67.4375 34 71 C32.23358828 73.80189446 30.96950178 75.51524911 28 77 C25.21441913 77.13560372 22.45507082 77.21271215 19.66796875 77.23828125 C18.83920731 77.246353 18.01044586 77.25442474 17.15657043 77.26274109 C15.40054415 77.27658221 13.64449096 77.28730424 11.88842773 77.29516602 C9.20829991 77.31236651 6.52940972 77.35624926 3.84960938 77.40039062 C2.14323824 77.41051879 0.43685661 77.41903451 -1.26953125 77.42578125 C-2.06865433 77.44328934 -2.8677774 77.46079742 -3.69111633 77.47883606 C-4.82204964 77.47444771 -4.82204964 77.47444771 -5.97583008 77.4699707 C-6.63376053 77.47583694 -7.29169098 77.48170319 -7.96955872 77.48774719 C-11.1526598 76.72311114 -12.75460892 75.35771904 -15 73 C-15.62818909 69.85046387 -15.62818909 69.85046387 -15.63110352 66.09179688 C-15.64183647 65.06180321 -15.64183647 65.06180321 -15.65278625 64.01100159 C-15.66966473 61.74623629 -15.65027924 59.48345315 -15.62890625 57.21875 C-15.62973505 55.64221025 -15.63219483 54.06567058 -15.63621521 52.48913574 C-15.63907259 49.18699088 -15.624379 45.88552453 -15.59692383 42.58349609 C-15.5628402 38.35295512 -15.56885928 34.12362731 -15.5875864 29.89302826 C-15.59816036 26.63814196 -15.58921517 23.38353747 -15.57420158 20.12867737 C-15.56902215 18.56898333 -15.5694987 17.00925983 -15.57574654 15.4495697 C-15.58120393 13.26847166 -15.56081108 11.08910391 -15.53344727 8.90820312 C-15.5241494 7.04766296 -15.5241494 7.04766296 -15.5146637 5.14953613 C-14.90737109 1.4331481 -13.92349177 0.28661663 -11 -2 C-6.95547123 -4.09199764 -3.72215422 -2.06786345 0 0 Z " fill="#9555F9" transform="translate(144,136)"/>
</svg>
